ply
format ascii 1.0
comment Created by Blender 2.82 (sub 7) - www.blender.org, source file: 'moon.blend'
element vertex 415
property float x
property float y
property float z
property float nx
property float ny
property float nz
property float s
property float t
element face 320
property list uchar uint vertex_indices
end_header
0.000049 -1763.475708 0.000081 0.000000 -1.000000 0.000000 0.568281 0.320231
-360.339447 -1706.955566 -261.699219 -0.209876 -0.965728 -0.152532 0.563605 0.368825
137.634720 -1706.955811 -423.441833 0.080142 -0.965728 -0.246803 0.518762 0.333755
-1283.311035 -788.660828 -932.014160 -0.722739 -0.449110 -0.525285 0.094428 0.425011
-1081.025513 -1159.518433 -785.102905 -0.602710 -0.666921 -0.438063 0.052630 0.395435
-1441.368042 -885.794922 -523.402100 -0.814020 -0.505783 -0.285440 0.108382 0.377156
0.000049 -1763.475708 0.000081 0.000000 -1.000000 0.000000 0.645805 0.063061
137.634720 -1706.955811 -423.441833 0.080142 -0.965728 -0.246803 0.659760 0.110915
445.406952 -1706.954346 0.000081 0.259438 -0.965728 0.000000 0.604008 0.092636
137.634720 -1706.955811 423.441986 0.080142 -0.965728 0.246803 0.604008 0.033485
-360.339447 -1706.955566 261.699402 -0.209876 -0.965728 0.152532 0.659760 0.015207
-1283.311035 -788.660828 -932.014160 -0.722739 -0.449110 -0.525285 0.800545 0.884580
-1441.368042 -885.794922 -523.402100 -0.814020 -0.505783 -0.285440 0.847533 0.905287
-1526.439453 -442.898468 -785.104858 -0.864650 -0.244270 -0.438948 0.795528 0.934987
490.171722 -788.661438 -1508.044556 0.276009 -0.449019 -0.849788 0.457460 0.746107
52.565037 -885.797241 -1532.039673 0.019807 -0.505692 -0.862484 0.422040 0.709348
275.272644 -442.899658 -1693.787476 0.150090 -0.244209 -0.958007 0.481627 0.701385
1586.256836 -788.653931 0.000081 0.893429 -0.449141 0.000000 0.474099 0.103591
1473.860840 -885.791443 -423.443054 0.826289 -0.505814 -0.247719 0.434593 0.072473
1696.567261 -442.896027 -261.700134 0.957488 -0.244270 -0.153264 0.490830 0.055692
490.171722 -788.661438 1508.044678 0.276009 -0.449019 0.849788 0.850258 0.222941
858.318970 -885.796875 1270.337280 0.490768 -0.505722 0.709464 0.808460 0.252517
773.254211 -442.900574 1532.046387 0.441481 -0.244209 0.863369 0.808460 0.193365
-1283.311035 -788.660828 932.014404 -0.722739 -0.449110 0.525285 0.349329 0.993918
-943.392334 -885.796875 1208.551025 -0.522843 -0.505722 0.686148 0.344312 0.943512
-1218.669434 -442.900330 1208.556030 -0.684439 -0.244240 0.686880 0.396318 0.973210
-1218.669556 -442.900360 -1208.555786 -0.684439 -0.244240 -0.686880 0.751465 0.896736
773.254211 -442.900574 -1532.046143 0.441481 -0.244209 -0.863369 0.507546 0.753266
1696.567261 -442.896027 261.700287 0.957488 -0.244270 0.153264 0.525586 0.103962
275.272644 -442.899658 1693.787720 0.150090 -0.244209 0.958007 0.864212 0.175086
-1283.311035 -788.660828 932.014404 -0.722739 -0.449110 0.525285 0.741034 0.208955
-1218.669434 -442.900330 1208.556030 -0.684439 -0.244240 0.686880 0.754989 0.256811
-1526.439453 -442.898468 785.105042 -0.864650 -0.244270 0.438948 0.699236 0.238532
-490.171600 788.661255 -1508.044556 -0.276009 0.449019 -0.849788 0.384196 0.405485
-858.318848 885.796875 -1270.337036 -0.490768 0.505722 -0.709464 0.342398 0.435061
-412.906799 1159.519287 -1270.334595 -0.230171 0.666829 -0.708731 0.342398 0.375908
1283.311035 788.660706 -932.014160 0.722739 0.449110 -0.525285 0.997689 0.358016
943.392334 885.796875 -1208.550781 0.522843 0.505722 -0.686148 0.949508 0.375875
1081.025513 1159.518433 -785.102905 0.602710 0.666921 -0.438063 0.964906 0.320087
1283.311035 788.660706 932.014404 0.722739 0.449110 0.525285 0.256394 0.556771
1441.368042 885.794922 523.402283 0.814020 0.505783 0.285440 0.270348 0.604625
1081.025513 1159.518433 785.103088 0.602741 0.666921 0.438063 0.214596 0.586347
-490.171600 788.661255 1508.044678 -0.276009 0.449019 0.849788 0.356410 0.052413
-52.564934 885.797241 1532.039795 -0.019807 0.505692 0.862484 0.373141 0.005428
-412.906799 1159.519287 1270.334839 -0.230171 0.666829 0.708731 0.407897 0.052041
-1586.256836 788.653870 0.000081 -0.893429 0.449141 0.000000 0.015507 0.189167
-1473.860840 885.791443 423.443207 -0.826289 0.505814 0.247719 0.066481 0.183005
-1336.222046 1159.511353 0.000081 -0.745079 0.666951 0.000000 0.036454 0.233417
-445.406830 1706.954346 0.000081 -0.259438 0.965728 0.000000 0.451688 0.943512
-137.634628 1706.955811 423.442017 -0.080142 0.965728 0.246803 0.503693 0.973211
0.000049 1763.475708 0.000081 0.000000 1.000000 0.000000 0.456705 0.993919
-932.377014 1500.103516 0.000081 -0.523667 0.851894 0.000000 0.448077 0.885226
-641.649536 1577.304199 466.007782 -0.366619 0.891354 0.266457 0.503693 0.914304
-1131.830566 1276.068726 466.009827 -0.629933 0.729331 0.266823 0.096443 0.233288
-932.377014 1500.103516 0.000081 -0.523667 0.851894 0.000000 0.063548 0.286974
-641.649536 1577.304199 466.007782 -0.366619 0.891354 0.266457 0.686589 0.858855
-288.113403 1500.108521 886.399780 -0.161809 0.851833 0.498184 0.740114 0.824839
-137.634628 1706.955811 423.442017 -0.080142 0.965728 0.246803 0.740114 0.884012
-641.649536 1577.304199 466.007782 -0.366619 0.891354 0.266457 0.126405 0.290519
-1131.830566 1276.068726 466.009827 -0.629933 0.729331 0.266823 0.629318 0.827851
-793.121399 1276.071411 932.019470 -0.448317 0.729301 0.516831 0.684761 0.793782
-412.906799 1159.519287 1270.334839 -0.230171 0.666829 0.708731 0.736791 0.765755
-1220.497681 927.123047 886.402649 -0.687094 0.527696 0.499374 0.126405 0.181446
-1220.497681 927.123047 886.402649 -0.687094 0.527696 0.499374 0.631177 0.765865
-1220.497681 927.123047 886.402649 -0.687094 0.527696 0.499374 0.394480 0.154805
-858.318848 885.796875 1270.337280 -0.490768 0.505722 0.709464 0.373141 0.100313
-793.121399 1276.071411 932.019470 -0.448317 0.729301 0.516831 0.432783 0.105622
-137.634628 1706.955811 423.442017 -0.080142 0.965728 0.246803 0.108382 0.622470
360.339569 1706.955566 261.699402 0.209876 0.965728 0.152532 0.052630 0.604191
0.000049 1763.475708 0.000081 0.000000 1.000000 0.000000 0.094428 0.574616
-288.113403 1500.108521 886.399780 -0.161809 0.851833 0.498184 0.273629 0.708792
245.091644 1577.305420 754.013367 0.140019 0.891324 0.431135 0.220068 0.674832
-137.634628 1706.955811 423.442017 -0.080142 0.965728 0.246803 0.273565 0.649618
-412.906799 1159.519287 1270.334839 -0.230171 0.666829 0.708731 0.270370 0.767879
93.621880 1276.072754 1220.025391 0.059023 0.729240 0.681692 0.218310 0.739906
245.091644 1577.305420 754.013367 0.140019 0.891324 0.431135 0.062196 0.659829
754.305969 1500.108032 547.820435 0.423658 0.851863 0.307901 0.003199 0.636527
641.655640 1276.072632 1042.023193 0.352794 0.729270 0.586230 0.162831 0.705896
754.305969 1500.108032 547.820435 0.423658 0.851863 0.307901 0.168102 0.644100
641.655640 1276.072632 1042.023193 0.352794 0.729270 0.586230 0.162805 0.556771
754.305969 1500.108032 547.820435 0.423658 0.851863 0.307901 0.165164 0.618682
93.621880 1276.072754 1220.025391 0.059023 0.729240 0.681692 0.432783 0.001200
-52.564934 885.797241 1532.039795 -0.019807 0.505692 0.862484 0.568476 0.593384
466.195557 927.125610 1434.229004 0.262398 0.527635 0.807917 0.599398 0.541872
93.621880 1276.072754 1220.025391 0.059023 0.729240 0.681692 0.627527 0.597286
466.195557 927.125610 1434.229004 0.262398 0.527635 0.807917 0.164757 0.767879
466.195557 927.125610 1434.229004 0.262398 0.527635 0.807917 0.165164 0.494860
943.392334 885.796875 1208.550903 0.522843 0.505722 0.686148 0.214596 0.527195
360.339569 1706.955566 -261.699219 0.209876 0.965728 -0.152532 0.052630 0.545041
793.122742 1577.303955 0.000081 0.453200 0.891385 0.000000 0.000840 0.574616
1189.687134 1276.070190 288.006531 0.666433 0.729362 0.154515 0.224162 0.641984
754.305969 1500.108032 -547.820251 0.423658 0.851863 -0.307901 0.003199 0.512706
754.305969 1500.108032 547.820435 0.423658 0.851863 0.307901 0.006136 0.661945
1189.687134 1276.070190 288.006531 0.666433 0.729362 0.154515 0.058103 0.692676
793.122742 1577.303955 0.000081 0.453200 0.891385 0.000000 0.000866 0.723740
1189.687134 1276.070190 -288.006378 0.666433 0.729362 -0.154515 0.056345 0.757750
754.305969 1500.108032 -547.820251 0.423658 0.851863 -0.307901 0.002792 0.785722
1189.687134 1276.070190 -288.006378 0.666433 0.729362 -0.154515 0.619463 0.882631
1081.025513 1159.518433 -785.102905 0.602710 0.666921 -0.438063 0.616123 0.940755
754.305969 1500.108032 -547.820251 0.423658 0.851863 -0.307901 0.563430 0.910886
1441.368042 885.794922 523.402283 0.814020 0.505783 0.285440 0.111600 0.667462
1508.616333 927.122559 0.000081 0.849391 0.527757 0.000000 0.111664 0.726636
1441.368042 885.794922 -523.402100 0.814020 0.505783 -0.285440 0.108406 0.785722
1189.687134 1276.070190 -288.006378 0.666433 0.729362 -0.154515 0.224162 0.492379
1441.368042 885.794922 -523.402100 0.814020 0.505783 -0.285440 0.214596 0.436741
1081.025513 1159.518433 -785.102905 0.602710 0.666921 -0.438063 0.270348 0.455020
1283.311035 788.660706 -932.014160 0.722739 0.449110 -0.525285 0.256393 0.407165
-137.634628 1706.955811 -423.441864 -0.080142 0.965728 -0.246803 0.108382 0.526762
245.091705 1577.305420 -754.013123 0.140019 0.891324 -0.431135 0.509077 0.942141
360.339569 1706.955566 -261.699219 0.209876 0.965728 -0.152532 0.512267 0.883749
641.655640 1276.072632 -1042.022949 0.352794 0.729270 -0.586230 0.566224 0.973509
360.339569 1706.955566 -261.699219 0.209876 0.965728 -0.152532 0.720476 0.320098
245.091705 1577.305420 -754.013123 0.140019 0.891324 -0.431135 0.723709 0.378294
-137.634628 1706.955811 -423.441864 -0.080142 0.965728 -0.246803 0.670317 0.351392
-288.113403 1500.108521 -886.399536 -0.161809 0.851833 -0.498184 0.669477 0.411208
641.655640 1276.072632 -1042.022949 0.352794 0.729270 -0.586230 0.346075 0.793222
93.621880 1276.072754 -1220.025146 0.059023 0.729240 -0.681692 0.347904 0.858295
245.091705 1577.305420 -754.013123 0.140019 0.891324 -0.431135 0.290633 0.827291
93.621880 1276.072754 -1220.025146 0.059023 0.729240 -0.681692 0.723709 0.442668
-412.906799 1159.519287 -1270.334595 -0.230171 0.666829 -0.708731 0.670317 0.468380
943.392334 885.796875 -1208.550781 0.522843 0.505722 -0.686148 0.619463 0.999090
943.392334 885.796875 -1208.550781 0.522843 0.505722 -0.686148 0.398106 0.765195
466.195557 927.125610 -1434.228882 0.262398 0.527635 -0.807917 0.401428 0.824278
-52.564934 885.797241 -1532.039673 -0.019807 0.505692 -0.862484 0.401428 0.883453
93.621880 1276.072754 -1220.025146 0.059023 0.729240 -0.681692 0.351964 0.320271
-52.564934 885.797241 -1532.039673 -0.019807 0.505692 -0.862484 0.398150 0.357630
-137.634628 1706.955811 -423.441864 -0.080142 0.965728 -0.246803 0.407627 0.981763
-641.649536 1577.304199 -466.007568 -0.366619 0.891354 -0.266457 0.617089 0.376846
-793.121460 1276.071533 -932.019226 -0.448317 0.729301 -0.516831 0.290608 0.405484
-288.113403 1500.108521 -886.399536 -0.161809 0.851833 -0.498184 0.292966 0.343573
-641.649536 1577.304199 -466.007568 -0.366619 0.891354 -0.266457 0.397970 0.923716
-793.121460 1276.071533 -932.019226 -0.448317 0.729301 -0.516831 0.617089 0.441219
-793.121460 1276.071533 -932.019226 -0.448317 0.729301 -0.516831 0.731153 0.514171
-1131.830566 1276.068726 -466.009583 -0.629933 0.729331 -0.266823 0.676705 0.549885
-641.649536 1577.304199 -466.007568 -0.366619 0.891354 -0.266457 0.671398 0.488101
-641.649536 1577.304199 -466.007568 -0.366619 0.891354 -0.266457 0.030942 0.337249
-1131.830566 1276.068726 -466.009583 -0.629933 0.729331 -0.266823 0.000980 0.280018
-1220.497681 927.123047 -886.402527 -0.687094 0.527696 -0.499374 0.292965 0.467396
-1220.497681 927.123047 -886.402527 -0.687094 0.527696 -0.499374 0.734631 0.576008
-1473.860840 885.791443 -423.443085 -0.826289 0.505814 -0.247719 0.683572 0.608507
-1336.222046 1159.511353 0.000081 -0.745079 0.666951 0.000000 0.629275 0.584818
-1586.256836 788.653870 0.000081 -0.893429 0.449141 0.000000 0.641225 0.633950
-1696.567261 442.895905 261.700287 -0.957488 0.244270 0.153264 0.451622 0.375909
-1473.860840 885.791443 423.443207 -0.826289 0.505814 0.247719 0.507374 0.357630
-1586.256836 788.653870 0.000081 -0.893429 0.449141 0.000000 0.493419 0.405484
-1686.692505 -0.000014 547.822693 -0.951018 0.000000 0.309091 0.001246 0.090115
-1528.401978 487.417969 754.017761 -0.858913 0.273721 0.432783 0.054819 0.122664
-1696.567261 442.895905 261.700287 -0.957488 0.244270 0.153264 0.004486 0.149267
-1526.439453 -442.898468 785.105042 -0.864650 -0.244270 0.438948 0.004485 0.030963
-1434.788452 -0.000045 1042.029663 -0.808863 0.008911 0.587878 0.054818 0.057566
-1528.401978 487.417969 754.017761 -0.858913 0.273721 0.432783 0.461187 0.320271
-1220.497681 927.123047 886.402649 -0.687094 0.527696 0.499374 0.110262 0.152027
-1473.860840 885.791443 423.443207 -0.826289 0.505814 0.247719 0.056564 0.178843
-1189.694092 487.420074 1220.032959 -0.676809 0.273690 0.683340 0.112131 0.090115
-858.318848 885.796875 1270.337280 -0.490768 0.505722 0.709464 0.160720 0.119691
-1434.788452 -0.000045 1042.029663 -0.808863 0.008911 0.587878 0.708802 0.294170
-1218.669434 -442.900330 1208.556030 -0.684439 -0.244240 0.686880 0.056563 0.001386
-1042.432495 -0.000076 1434.238037 -0.587634 0.000000 0.809107 0.110261 0.028203
-773.254089 442.900482 1532.046387 -0.441481 0.244209 0.863369 0.160720 0.060539
-1189.694092 487.420074 1220.032959 -0.676809 0.273690 0.683340 0.332643 0.140279
-773.254089 442.900482 1532.046387 -0.441481 0.244209 0.863369 0.316903 0.083532
-275.272552 442.899567 1693.787720 -0.150090 0.244209 0.958007 0.509139 0.596051
-490.171600 788.661255 1508.044678 -0.276009 0.449019 0.849788 0.542144 0.634756
0.000049 -0.000014 1772.816162 0.000000 0.000000 1.000000 0.954250 0.549736
245.093887 487.419495 1686.045898 0.146001 0.273659 0.950652 0.954250 0.611676
-275.272552 442.899567 1693.787720 -0.150090 0.244209 0.958007 0.903191 0.582235
275.272644 -442.899658 1693.787720 0.150090 -0.244209 0.958007 0.961652 0.698153
548.037964 -0.000912 1686.048584 0.308878 0.008911 0.951048 0.911752 0.730908
0.000049 -0.000014 1772.816162 0.000000 0.000000 1.000000 0.908958 0.668285
245.093887 487.419495 1686.045898 0.146001 0.273659 0.950652 0.535708 0.543955
245.093887 487.419495 1686.045898 0.146001 0.273659 0.950652 0.854603 0.699541
548.037964 -0.000912 1686.048584 0.308878 0.008911 0.951048 0.852874 0.704311
793.131897 487.419800 1508.043945 0.440474 0.273690 0.855007 0.796066 0.672348
245.093887 487.419495 1686.045898 0.146001 0.273659 0.950652 0.849889 0.640076
793.131897 487.419800 1508.043945 0.440474 0.273690 0.855007 0.568202 0.488077
943.392334 885.796875 1208.550903 0.522843 0.505722 0.686148 0.627527 0.491835
773.254211 -442.900574 1532.046387 0.441481 -0.244209 0.863369 0.964992 0.756489
773.254211 -442.900574 1532.046387 0.441481 -0.244209 0.863369 0.849054 0.762667
1042.432495 -0.000076 1434.237915 0.587634 0.000000 0.809107 0.798185 0.734997
1218.669556 442.900269 1208.556030 0.684439 0.244240 0.686880 0.745816 0.704580
943.392334 885.796875 1208.550903 0.522843 0.505722 0.686148 0.743105 0.646212
1218.669556 442.900269 1208.556030 0.684439 0.244240 0.686880 0.270348 0.508915
1526.439453 442.898376 785.105042 0.864650 0.244270 0.438948 0.482732 0.544072
1441.368042 885.794922 523.402283 0.814020 0.505783 0.285440 0.447975 0.592343
1283.311035 788.660706 932.014404 0.722739 0.449110 0.525285 0.431244 0.544444
1686.692505 -0.000014 547.822693 0.951018 0.000000 0.309091 0.509080 0.701561
1679.874146 487.417389 288.007568 0.949217 0.273751 0.154881 0.564400 0.732675
1526.439453 442.898376 785.105042 0.864650 0.244270 0.438948 0.512340 0.760648
1696.567261 -442.896027 261.700287 0.957488 -0.244270 0.153264 0.509143 0.642386
1773.490845 0.001054 -0.000558 0.999939 0.008911 0.000000 0.562640 0.667600
1679.874146 487.417389 288.007568 0.949217 0.273751 0.154881 0.507618 0.597651
1508.616333 927.122559 0.000081 0.849391 0.527757 0.000000 0.469315 0.646833
1679.873657 487.418579 -288.007874 0.949217 0.273751 -0.154881 0.619878 0.698665
1508.616333 927.122559 0.000081 0.849391 0.527757 0.000000 0.617952 0.760648
1679.873657 487.418579 -288.007874 0.949217 0.273751 -0.154881 0.162805 0.407165
1508.616333 927.122559 0.000081 0.849391 0.527757 0.000000 0.165165 0.469077
1773.490845 0.001054 -0.000558 0.999939 0.008911 0.000000 0.550472 0.050381
1686.692505 -0.000076 -547.822510 0.951018 0.000000 -0.309091 0.512170 0.001200
1686.692505 -0.000076 -547.822510 0.951018 0.000000 -0.309091 0.614606 0.636869
1686.692505 -0.000076 -547.822510 0.951018 0.000000 -0.309091 0.165163 0.345253
1526.439453 442.898376 -785.104858 0.864650 0.244270 -0.438948 0.214595 0.377589
1218.669434 442.900208 -1208.555786 0.684439 0.244240 -0.686880 0.999580 0.408630
1042.432495 -0.000014 -1434.237793 0.587634 0.000000 -0.809107 0.999580 0.467026
793.133240 487.419067 -1508.043091 0.440474 0.273690 -0.855007 0.945865 0.434674
773.254211 -442.900574 -1532.046143 0.441481 -0.244209 -0.863369 0.783460 0.354798
548.039246 -0.001433 -1686.047974 0.308878 0.008911 -0.951048 0.783590 0.413808
1042.432495 -0.000014 -1434.237793 0.587634 0.000000 -0.809107 0.729013 0.381451
793.133240 487.419067 -1508.043091 0.440474 0.273690 -0.855007 0.566352 0.855639
466.195557 927.125610 -1434.228882 0.262398 0.527635 -0.807917 0.619877 0.821623
943.392334 885.796875 -1208.550781 0.522843 0.505722 -0.686148 0.619877 0.880797
793.133240 487.419067 -1508.043091 0.440474 0.273690 -0.855007 0.725408 0.443281
548.039246 -0.001433 -1686.047974 0.308878 0.008911 -0.951048 0.509080 0.824634
245.095200 487.418976 -1686.045776 0.146001 0.273659 -0.950652 0.564523 0.790566
-52.564934 885.797241 -1532.039673 -0.019807 0.505692 -0.862484 0.616555 0.762539
275.272644 -442.899658 -1693.787476 0.150090 -0.244209 -0.958007 0.834709 0.384335
0.000049 -0.000076 -1772.815918 0.000000 0.000000 -1.000000 0.836293 0.443281
0.000049 -0.000076 -1772.815918 0.000000 0.000000 -1.000000 0.510940 0.762648
0.000049 -0.000076 -1772.815918 0.000000 0.000000 -1.000000 0.397914 0.575601
-275.272552 442.899567 -1693.787476 -0.150090 0.244209 -0.958007 0.343468 0.548949
245.095200 487.418976 -1686.045776 0.146001 0.273659 -0.950652 0.390842 0.514053
-52.564934 885.797241 -1532.039673 -0.019807 0.505692 -0.862484 0.335385 0.493158
-490.171600 788.661255 -1508.044556 -0.276009 0.449019 -0.849788 0.298483 0.528344
-773.254089 442.900482 -1532.046143 -0.441481 0.244209 -0.863369 0.398150 0.453340
-1042.432495 -0.000014 -1434.237671 -0.587634 0.000000 -0.809107 0.228715 0.210394
-1189.693848 487.417847 -1220.033813 -0.676809 0.273690 -0.683340 0.194190 0.263081
-773.254089 442.900482 -1532.046143 -0.441481 0.244209 -0.863369 0.168557 0.210457
-1218.669556 -442.900360 -1208.555786 -0.684439 -0.244240 -0.686880 0.288784 0.213599
-1434.787354 -0.003399 -1042.031006 -0.808863 0.008911 -0.587878 0.260347 0.264810
-1189.693848 487.417847 -1220.033813 -0.676809 0.273690 -0.683340 0.351963 0.490699
-1528.401855 487.414825 -754.019714 -0.858913 0.273721 -0.432783 0.225771 0.319384
-1220.497681 927.123047 -886.402527 -0.687094 0.527696 -0.499374 0.162948 0.314200
-1528.401855 487.414825 -754.019714 -0.858913 0.273721 -0.432783 0.734631 0.637948
-1434.787354 -0.003399 -1042.031006 -0.808863 0.008911 -0.587878 0.741809 0.954784
-1686.692505 -0.000076 -547.822510 -0.951018 0.000000 -0.309091 0.791917 0.993274
-1686.692505 -0.000076 -547.822510 -0.951018 0.000000 -0.309091 0.288784 0.317488
-1686.692505 -0.000076 -547.822510 -0.951018 0.000000 -0.309091 0.402189 0.467395
-1696.567261 442.895905 -261.700134 -0.957488 0.244270 -0.153264 0.451622 0.435059
-1528.401855 487.414825 -754.019714 -0.858913 0.273721 -0.432783 0.461187 0.490698
-1473.860840 885.791443 -423.443085 -0.826289 0.505814 -0.247719 0.507374 0.453338
-773.254089 442.900482 1532.046387 -0.441481 0.244209 0.863369 0.848893 0.558547
-490.171600 788.661255 1508.044678 -0.276009 0.449019 0.849788 0.860844 0.607679
-1042.432495 -0.000076 1434.238037 -0.587634 0.000000 0.809107 0.884840 0.060099
-548.039185 -0.000045 1686.048218 -0.308878 -0.008911 0.951048 0.831315 0.026083
-773.254089 442.900482 1532.046387 -0.441481 0.244209 0.863369 0.884840 0.000924
-1218.669434 -442.900330 1208.556030 -0.684439 -0.244240 0.686880 0.881517 0.119184
-793.132751 -487.420685 1508.043335 -0.440474 -0.273690 0.855007 0.829487 0.091157
-548.039185 -0.000045 1686.048218 -0.308878 -0.008911 0.951048 0.896323 0.523613
-245.094757 -487.420380 1686.045654 -0.146001 -0.273659 0.950652 0.774044 0.057088
-245.094757 -487.420380 1686.045654 -0.146001 -0.273659 0.950652 0.950771 0.487898
-245.094757 -487.420380 1686.045654 -0.146001 -0.273659 0.950652 0.964992 0.640028
-793.132751 -487.420685 1508.043335 -0.440474 -0.273690 0.855007 0.396318 0.914303
-466.195435 -927.125610 1434.229126 -0.262398 -0.527635 0.807917 0.340701 0.885226
-466.195435 -927.125610 1434.229126 -0.262398 -0.527635 0.807917 0.775904 0.119075
-466.195435 -927.125610 1434.229126 -0.262398 -0.527635 0.807917 0.387237 0.263922
52.565037 -885.797241 1532.039795 0.019807 -0.505692 0.862484 0.356315 0.212410
-245.094757 -487.420380 1686.045654 -0.146001 -0.273659 0.950652 0.415366 0.208507
275.272644 -442.899658 1693.787720 0.150090 -0.244209 0.958007 0.380410 0.161283
490.171722 -788.661438 1508.044678 0.276009 -0.449019 0.849788 0.329983 0.171038
1218.669556 442.900269 1208.556030 0.684439 0.244240 0.686880 0.447975 0.497458
1434.786865 -0.000045 1042.031738 0.808863 -0.008911 0.587878 0.741850 0.762667
1189.691406 -487.419952 1220.035645 0.676809 -0.273690 0.683340 0.756669 0.222940
1042.432495 -0.000076 1434.237915 0.587634 0.000000 0.809107 0.759027 0.161028
1434.786865 -0.000045 1042.031738 0.808863 -0.008911 0.587878 0.507618 0.493229
1434.786865 -0.000045 1042.031738 0.808863 -0.008911 0.587878 0.714142 0.031766
1686.692505 -0.000014 547.822693 0.951018 0.000000 0.309091 0.661466 0.065701
1526.439453 442.898376 785.105042 0.864650 0.244270 0.438948 0.663109 0.006485
1042.432495 -0.000076 1434.237915 0.587634 0.000000 0.809107 0.768773 0.000967
1189.691406 -487.419952 1220.035645 0.676809 -0.273690 0.683340 0.772312 0.062809
1528.400024 -487.418274 754.021240 0.858913 -0.273721 0.432783 0.715897 0.096841
1696.567261 -442.896027 261.700287 0.957488 -0.244270 0.153264 0.666300 0.124748
1220.497681 -927.123047 886.402710 0.687094 -0.527696 0.499374 0.759027 0.284852
1220.497681 -927.123047 886.402710 0.687094 -0.527696 0.499374 0.772112 0.124748
1220.497681 -927.123047 886.402710 0.687094 -0.527696 0.499374 0.920269 0.249174
1473.860840 -885.791443 423.443237 0.826289 -0.505814 0.247719 0.972962 0.219306
1528.400024 -487.418274 754.021240 0.858913 -0.273721 0.432783 0.976302 0.277431
1528.400024 -487.418274 754.021240 0.858913 -0.273721 0.432783 0.550472 0.154804
1473.860840 -885.791443 423.443237 0.826289 -0.505814 0.247719 0.490830 0.150576
1218.669434 442.900208 -1208.555786 0.684439 0.244240 -0.686880 0.270348 0.359310
1686.692505 -0.000076 -547.822510 0.951018 0.000000 -0.309091 0.188978 0.106787
1434.786865 -0.000045 -1042.031616 0.808863 -0.008911 -0.587878 0.251846 0.110267
1526.439453 442.898376 -785.104858 0.864650 0.244270 -0.438948 0.220501 0.157261
1696.567261 -442.896027 -261.700134 0.957488 -0.244270 -0.153264 0.163150 0.053274
1528.400146 -487.418274 -754.021057 0.858913 -0.273721 -0.432783 0.220288 0.053047
1434.786865 -0.000045 -1042.031616 0.808863 -0.008911 -0.587878 0.224161 0.321950
1042.432495 -0.000014 -1434.237793 0.587634 0.000000 -0.809107 0.314813 0.110070
1218.669434 442.900208 -1208.555786 0.684439 0.244240 -0.686880 0.280614 0.158830
1189.691528 -487.419952 -1220.035400 0.676809 -0.273690 -0.683340 0.286444 0.054773
1189.691528 -487.419952 -1220.035400 0.676809 -0.273690 -0.683340 0.736085 0.319903
1528.400146 -487.418274 -754.021057 0.858913 -0.273721 -0.432783 0.450332 0.015727
1473.860840 -885.791443 -423.443054 0.826289 -0.505814 -0.247719 0.194588 0.002849
1220.497681 -927.123047 -886.402466 0.687094 -0.527696 -0.499374 0.254786 0.001231
858.318970 -885.796875 -1270.337036 0.490768 -0.505722 -0.709464 0.314813 0.005985
1189.691528 -487.419952 -1220.035400 0.676809 -0.273690 -0.683340 0.432984 0.175787
858.318970 -885.796875 -1270.337036 0.490768 -0.505722 -0.709464 0.473482 0.215753
773.254211 -442.900574 -1532.046143 0.441481 -0.244209 -0.863369 0.417245 0.232533
490.171722 -788.661438 -1508.044556 0.276009 -0.449019 -0.849788 0.456751 0.263652
-773.254089 442.900482 -1532.046143 -0.441481 0.244209 -0.863369 0.292218 0.578486
-548.039185 -0.000045 -1686.047974 -0.308878 -0.008911 -0.951048 0.343337 0.607959
-245.094788 -487.420380 -1686.045410 -0.146001 -0.273659 -0.950652 0.444861 0.654886
0.000049 -0.000076 -1772.815918 0.000000 0.000000 -1.000000 0.507546 0.648849
-1042.432495 -0.000014 -1434.237671 -0.587634 0.000000 -0.809107 0.290634 0.637432
-245.094788 -487.420380 -1686.045410 -0.146001 -0.273659 -0.950652 0.401518 0.637432
-245.094788 -487.420380 -1686.045410 -0.146001 -0.273659 -0.950652 0.799120 0.789706
-793.132812 -487.420685 -1508.042847 -0.440474 -0.273690 -0.855007 0.797292 0.854779
-548.039185 -0.000045 -1686.047974 -0.308878 -0.008911 -0.951048 0.741848 0.820710
-1042.432495 -0.000014 -1434.237671 -0.587634 0.000000 -0.809107 0.743708 0.882696
-793.132812 -487.420685 -1508.042847 -0.440474 -0.273690 -0.855007 0.263143 0.161296
52.565037 -885.797241 -1532.039673 0.019807 -0.505692 -0.862484 0.852645 0.764549
-466.195435 -927.125610 -1434.228760 -0.262398 -0.527635 -0.807917 0.852646 0.823723
-943.392334 -885.796875 -1208.550659 -0.522843 -0.505722 -0.686148 0.849323 0.882807
-793.132812 -487.420685 -1508.042847 -0.440474 -0.273690 -0.855007 0.062196 0.510225
-943.392334 -885.796875 -1208.550659 -0.522843 -0.505722 -0.686148 0.052630 0.454586
-1218.669556 -442.900360 -1208.555786 -0.684439 -0.244240 -0.686880 0.108382 0.472866
-1773.490967 -0.000045 0.000081 -0.999939 -0.008911 0.000000 0.399831 0.405484
-1679.874146 -487.417755 -288.007263 -0.949217 -0.273751 -0.154881 0.847533 0.964195
-1686.692505 -0.000014 547.822693 -0.951018 0.000000 0.309091 0.402189 0.343573
-1686.692505 -0.000076 -547.822510 -0.951018 0.000000 -0.309091 0.295904 0.639526
-1679.874146 -487.417755 -288.007263 -0.949217 -0.273751 -0.154881 0.347871 0.670257
-1773.490967 -0.000045 0.000081 -0.999939 -0.008911 0.000000 0.290633 0.701321
-1679.874146 -487.417755 288.007477 -0.949217 -0.273751 0.154881 0.346113 0.735331
-1686.692505 -0.000014 547.822693 -0.951018 0.000000 0.309091 0.292560 0.763304
-1679.874146 -487.417755 288.007477 -0.949217 -0.273751 0.154881 0.647446 0.208956
-1686.692505 -0.000014 547.822693 -0.951018 0.000000 0.309091 0.649804 0.270868
-1441.368042 -885.794922 -523.402100 -0.814020 -0.505783 -0.285440 0.401369 0.645044
-1508.616333 -927.122559 0.000081 -0.849391 -0.527757 0.000000 0.401433 0.704217
-1441.368042 -885.794922 523.402283 -0.814020 -0.505783 0.285440 0.398174 0.763304
-1441.368042 -885.794922 523.402283 -0.814020 -0.505783 0.285440 0.699237 0.179380
-1081.025513 -1159.518433 785.103088 -0.602710 -0.666921 0.438063 0.300250 0.981763
-754.305908 -1500.108032 547.820435 -0.423658 -0.851863 0.307901 0.940921 0.029166
-641.655151 -1276.071411 1042.024536 -0.352794 -0.729270 0.586230 0.996954 0.000910
-1081.025513 -1159.518433 785.103088 -0.602710 -0.666921 0.438063 0.993613 0.059034
-360.339447 -1706.955566 261.699402 -0.209876 -0.965728 0.152532 0.794370 0.522789
-245.090729 -1577.303955 754.016602 -0.140019 -0.891324 0.431135 0.794501 0.581798
-754.305908 -1500.108032 547.820435 -0.423658 -0.851863 0.307901 0.739924 0.549441
-641.655151 -1276.071411 1042.024536 -0.352794 -0.729270 0.586230 0.290593 0.923715
-641.655151 -1276.071411 1042.024536 -0.352794 -0.729270 0.586230 0.356041 0.317717
-943.392334 -885.796875 1208.551025 -0.522843 -0.505722 0.686148 0.415366 0.313959
-641.655151 -1276.071411 1042.024536 -0.352794 -0.729270 0.586230 0.736320 0.611270
-245.090729 -1577.303955 754.016602 -0.140019 -0.891324 0.431135 0.290741 0.314782
-93.620934 -1276.070312 1220.027832 -0.059023 -0.729240 0.681692 0.323548 0.261839
137.634720 -1706.955811 423.441986 0.080142 -0.965728 0.246803 0.845619 0.552326
288.113525 -1500.108521 886.399719 0.161809 -0.851833 0.498184 0.847204 0.611270
-245.090729 -1577.303955 754.016602 -0.140019 -0.891324 0.431135 0.837993 0.321345
288.113525 -1500.108521 886.399719 0.161809 -0.851833 0.498184 0.890381 0.351356
-93.620934 -1276.070312 1220.027832 -0.059023 -0.729240 0.681692 0.837993 0.385719
412.906952 -1159.519287 1270.334839 0.230171 -0.666829 0.708731 0.891220 0.411172
412.906952 -1159.519287 1270.334839 0.230171 -0.666829 0.708731 0.296978 0.209744
412.906952 -1159.519287 1270.334839 0.230171 -0.666829 0.708731 0.864212 0.270796
793.123962 -1276.071289 932.017578 0.448317 -0.729301 0.516800 0.944613 0.384271
641.651245 -1577.303589 466.007019 0.366619 -0.891354 0.266457 0.552217 0.063061
288.113525 -1500.108521 886.399719 0.161809 -0.851833 0.498184 0.554577 0.001149
858.318970 -885.796875 1270.337280 0.490768 -0.505722 0.709464 0.941380 0.442468
793.123962 -1276.071289 932.017578 0.448317 -0.729301 0.516800 0.865915 0.217919
858.318970 -885.796875 1270.337280 0.490768 -0.505722 0.709464 0.869105 0.276311
641.651245 -1577.303589 466.007019 0.366619 -0.891354 0.266457 0.944613 0.319897
641.651245 -1577.303589 466.007019 0.366619 -0.891354 0.266457 0.220102 0.794928
1131.832642 -1276.067749 466.007568 0.629933 -0.729331 0.266823 0.218273 0.860000
793.123962 -1276.071289 932.017578 0.448317 -0.729301 0.516800 0.162831 0.825931
1131.832642 -1276.067749 466.007568 0.629933 -0.729331 0.266823 0.923063 0.186551
445.406952 -1706.954346 0.000081 0.259438 -0.965728 0.000000 0.273626 0.769770
932.377014 -1500.103516 0.000081 0.523667 -0.851894 0.000000 0.273626 0.828944
1336.222046 -1159.511353 0.000081 0.745079 -0.666951 0.000000 0.270303 0.888028
1336.222046 -1159.511353 0.000081 0.745079 -0.666951 0.000000 0.976302 0.160971
1336.222046 -1159.511353 0.000081 0.745079 -0.666951 0.000000 0.907748 0.861783
1586.256836 -788.653931 0.000081 0.893429 -0.449141 0.000000 0.953213 0.838012
1473.860840 -885.791443 423.443237 0.826289 -0.505814 0.247719 0.960490 0.887279
1473.860840 -885.791443 -423.443054 0.826289 -0.505814 -0.247719 0.915843 0.803171
932.377014 -1500.103516 0.000081 0.523667 -0.851894 0.000000 0.854340 0.887279
1131.832275 -1276.067383 -466.008911 0.629933 -0.729331 -0.266823 0.860476 0.825619
641.651489 -1577.302734 -466.010040 0.366619 -0.891354 -0.266457 0.613573 0.148274
932.377014 -1500.103516 0.000081 0.523667 -0.851894 0.000000 0.554576 0.124972
1220.497681 -927.123047 -886.402466 0.687094 -0.527696 -0.499374 0.871286 0.764584
932.377014 -1500.103516 0.000081 0.523667 -0.851894 0.000000 0.634589 0.640086
641.651489 -1577.302734 -466.010040 0.366619 -0.891354 -0.266457 0.686556 0.670817
1131.832275 -1276.067383 -466.008911 0.629933 -0.729331 -0.266823 0.629318 0.701881
793.123840 -1276.069458 -932.020081 0.448317 -0.729301 -0.516831 0.684797 0.735891
1220.497681 -927.123047 -886.402466 0.687094 -0.527696 -0.499374 0.631244 0.763864
793.123840 -1276.069458 -932.020081 0.448317 -0.729301 -0.516831 0.533124 0.210443
1220.497681 -927.123047 -886.402466 0.687094 -0.527696 -0.499374 0.494822 0.161261
137.634720 -1706.955811 -423.441833 0.080142 -0.965728 -0.246803 0.740053 0.645603
288.113525 -1500.108521 -886.399536 0.161809 -0.851833 -0.498184 0.740117 0.704777
412.906952 -1159.519287 -1270.334595 0.230171 -0.666829 -0.708731 0.736858 0.763864
412.906952 -1159.519287 -1270.334595 0.230171 -0.666829 -0.708731 0.508238 0.264024
-1081.025513 -1159.518433 785.103088 -0.602710 -0.666921 0.438063 0.754989 0.161100
-1508.616333 -927.122559 0.000081 -0.849391 -0.527757 0.000000 0.111661 0.846696
-1189.687866 -1276.069824 288.006104 -0.666433 -0.729362 0.154515 0.056308 0.815641
-1441.368042 -885.794922 523.402283 -0.814020 -0.505783 0.285440 0.108338 0.787613
-1441.368042 -885.794922 -523.402100 -0.814020 -0.505783 -0.285440 0.111661 0.905870
-1189.688965 -1276.068726 -288.007629 -0.666433 -0.729362 -0.154515 0.058136 0.880712
-1441.368042 -885.794922 523.402283 -0.814020 -0.505783 0.285440 0.996954 0.117370
-1189.687866 -1276.069824 288.006104 -0.666433 -0.729362 0.154515 0.943715 0.091788
-793.124573 -1577.302979 -0.001227 -0.453200 -0.891385 0.000000 0.000866 0.849709
-793.124573 -1577.302979 -0.001227 -0.453200 -0.891385 0.000000 0.886568 0.060420
-793.124573 -1577.302979 -0.001227 -0.453200 -0.891385 0.000000 0.746996 0.487895
-1189.688965 -1276.068726 -288.007629 -0.666433 -0.729362 -0.154515 0.062196 0.339797
-1081.025513 -1159.518433 -785.102905 -0.602710 -0.666921 -0.438063 0.557116 0.485639
-754.305908 -1500.108032 -547.820251 -0.423658 -0.851863 -0.307901 0.559449 0.428507
-1189.688965 -1276.068726 -288.007629 -0.666433 -0.729362 -0.154515 0.611854 0.462831
-793.124573 -1577.302979 -0.001227 -0.453200 -0.891385 0.000000 0.615425 0.398553
-360.339447 -1706.955566 261.699402 -0.209876 -0.965728 0.152532 0.615425 0.340270
52.565037 -885.797241 -1532.039673 0.019807 -0.505692 -0.862484 0.473482 0.310637
288.113525 -1500.108521 -886.399536 0.161809 -0.851833 -0.498184 0.645740 0.251365
-93.623161 -1276.071777 -1220.026001 -0.059023 -0.729240 -0.681692 0.593064 0.217431
412.906952 -1159.519287 -1270.334595 0.230171 -0.666829 -0.708731 0.644096 0.192150
137.634720 -1706.955811 -423.441833 0.080142 -0.965728 -0.246803 0.640907 0.310411
-245.094070 -1577.304077 -754.015137 -0.140019 -0.891324 -0.431135 0.591310 0.282505
-93.623161 -1276.071777 -1220.026001 -0.059023 -0.729240 -0.681692 0.533124 0.314866
-466.195435 -927.125610 -1434.228760 -0.262398 -0.527635 -0.807917 0.538433 0.186632
52.565037 -885.797241 -1532.039673 0.019807 -0.505692 -0.862484 0.592834 0.161226
-641.657776 -1276.070312 -1042.024292 -0.352794 -0.729270 -0.586230 0.534895 0.248473
-641.657776 -1276.070312 -1042.024292 -0.352794 -0.729270 -0.586230 0.000840 0.425010
-466.195435 -927.125610 -1434.228760 -0.262398 -0.527635 -0.807917 0.003198 0.486922
-245.094070 -1577.304077 -754.015137 -0.140019 -0.891324 -0.431135 0.509045 0.391384
-754.305908 -1500.108032 -547.820251 -0.423658 -0.851863 -0.307901 0.535096 0.310411
-754.305908 -1500.108032 -547.820251 -0.423658 -0.851863 -0.307901 0.003198 0.363099
3 0 1 2
3 3 4 5
3 6 7 8
3 6 8 9
3 6 9 10
3 11 12 13
3 14 15 16
3 17 18 19
3 20 21 22
3 23 24 25
3 11 13 26
3 14 16 27
3 17 19 28
3 20 22 29
3 30 31 32
3 33 34 35
3 36 37 38
3 39 40 41
3 42 43 44
3 45 46 47
3 48 49 50
3 51 52 48
3 47 53 54
3 48 52 49
3 55 56 57
3 54 53 58
3 59 60 55
3 55 60 56
3 60 61 56
3 47 46 53
3 46 62 53
3 59 63 60
3 64 65 66
3 66 65 44
3 65 42 44
3 67 68 69
3 70 71 72
3 73 74 70
3 67 75 68
3 75 76 68
3 70 74 71
3 74 77 71
3 71 77 78
3 79 41 80
3 44 43 81
3 82 83 84
3 74 85 77
3 86 87 79
3 79 87 41
3 87 39 41
3 68 88 69
3 76 89 68
3 41 90 80
3 68 89 88
3 89 91 88
3 92 93 94
3 93 95 94
3 94 95 96
3 97 98 99
3 41 40 90
3 100 101 93
3 93 101 95
3 101 102 95
3 103 104 105
3 104 106 105
3 88 107 69
3 99 108 109
3 98 110 99
3 111 112 113
3 112 114 113
3 99 110 108
3 115 116 117
3 112 118 114
3 118 119 114
3 98 120 110
3 121 122 115
3 115 122 116
3 122 123 116
3 124 125 35
3 125 33 35
3 126 48 50
3 114 127 113
3 35 128 129
3 126 130 48
3 130 51 48
3 114 131 127
3 132 133 134
3 135 136 54
3 136 47 54
3 35 34 128
3 34 137 128
3 132 138 133
3 138 139 133
3 133 139 140
3 139 141 140
3 142 143 144
3 145 146 147
3 148 149 145
3 142 150 143
3 146 151 152
3 145 149 146
3 149 153 146
3 146 153 151
3 153 154 151
3 32 31 155
3 156 157 149
3 149 157 153
3 157 158 153
3 159 160 65
3 160 42 65
3 161 82 162
3 163 164 165
3 166 167 168
3 161 169 82
3 169 83 82
3 168 167 170
3 171 172 173
3 169 174 83
3 174 175 83
3 166 176 167
3 177 178 171
3 171 178 172
3 178 179 172
3 172 179 180
3 181 39 87
3 182 183 184
3 185 186 187
3 188 189 185
3 182 190 183
3 190 191 183
3 185 189 186
3 189 192 186
3 186 192 193
3 194 104 195
3 28 19 196
3 19 197 196
3 189 198 192
3 199 200 194
3 194 200 104
3 200 106 104
3 201 37 36
3 202 203 201
3 204 205 206
3 201 203 37
3 207 208 209
3 206 205 210
3 211 212 207
3 207 212 208
3 212 213 208
3 204 214 205
3 214 215 205
3 211 216 212
3 217 218 219
3 219 218 220
3 218 221 220
3 222 34 33
3 223 224 225
3 226 227 223
3 222 228 34
3 228 137 34
3 223 227 224
3 227 229 224
3 224 229 230
3 231 139 138
3 26 13 232
3 13 233 232
3 227 234 229
3 235 236 237
3 237 236 238
3 236 144 238
3 239 165 240
3 241 242 243
3 244 245 241
3 239 246 165
3 246 163 165
3 241 245 242
3 245 247 242
3 246 248 163
3 249 166 168
3 25 24 250
3 24 251 250
3 245 252 247
3 253 254 255
3 255 254 256
3 254 257 256
3 258 182 184
3 178 259 179
3 22 260 261
3 258 262 182
3 263 264 265
3 266 267 263
3 267 268 263
3 263 268 264
3 268 269 264
3 22 21 260
3 21 270 260
3 267 271 268
3 272 273 274
3 275 276 28
3 276 17 28
3 200 277 106
3 278 279 280
3 281 282 278
3 200 283 277
3 279 284 285
3 278 282 279
3 282 286 279
3 279 286 284
3 287 204 206
3 19 18 288
3 289 290 282
3 282 290 286
3 290 291 286
3 292 293 294
3 293 295 294
3 218 296 221
3 217 297 218
3 16 298 299
3 218 297 296
3 297 300 296
3 217 301 297
3 302 303 304
3 304 303 305
3 306 226 223
3 16 15 298
3 307 308 302
3 302 308 303
3 308 309 303
3 310 311 312
3 311 3 312
3 236 142 144
3 235 313 236
3 13 314 233
3 236 313 142
3 313 315 142
3 316 317 318
3 317 319 318
3 318 319 320
3 321 32 322
3 13 12 314
3 323 324 317
3 317 324 319
3 324 325 319
3 321 326 32
3 326 30 32
3 327 24 23
3 328 329 330
3 331 332 333
3 327 334 24
3 335 253 336
3 333 332 337
3 338 339 335
3 335 339 253
3 339 254 253
3 331 340 332
3 340 341 332
3 342 343 344
3 343 345 344
3 339 346 254
3 346 257 254
3 347 21 20
3 343 348 345
3 9 349 350
3 345 348 351
3 352 272 353
3 343 354 348
3 355 356 357
3 352 358 272
3 358 273 272
3 9 8 349
3 359 360 355
3 355 360 356
3 360 361 356
3 358 362 273
3 363 364 365
3 363 366 364
3 367 368 363
3 8 369 370
3 363 368 366
3 368 371 366
3 372 373 374
3 373 375 374
3 374 375 376
3 377 293 378
3 8 7 369
3 379 380 373
3 373 380 375
3 380 381 375
3 377 382 293
3 382 295 293
3 326 383 30
3 384 385 386
3 387 388 384
3 389 390 330
3 390 328 330
3 384 388 385
3 388 391 385
3 390 392 328
3 393 331 333
3 5 4 394
3 395 396 397
3 397 396 398
3 396 1 398
3 398 1 399
3 1 0 399
3 382 400 295
3 401 402 403
3 404 405 401
3 382 406 400
3 402 407 408
3 401 405 402
3 405 409 402
3 402 409 407
3 410 311 411
3 2 1 412
3 1 396 412
3 405 413 409
3 414 4 410
3 410 4 311
3 4 3 311
